<mxfile host="app.diagrams.net" modified="2022-03-15T12:52:59.895Z" agent="5.0 (Windows NT 10.0; Win64; x64) AppleWebKit/537.36 (KHTML, like Gecko) Chrome/99.0.4844.51 Safari/537.36" etag="CmXXHY9NOeO3DWuCJ4aX" version="17.1.2" type="github">
  <diagram id="fCY6dkZUbpjvrwRvttyK" name="Page-1">
    <mxGraphModel dx="1038" dy="1754" grid="1" gridSize="10" guides="1" tooltips="1" connect="1" arrows="1" fold="1" page="1" pageScale="1" pageWidth="827" pageHeight="1169" math="0" shadow="0">
      <root>
        <mxCell id="0" />
        <mxCell id="1" parent="0" />
        <mxCell id="dyUw3utnPXXKPK0ZKmom-49" value="" style="rounded=1;whiteSpace=wrap;html=1;fontSize=16;fontColor=#FFFFFF;fillColor=none;gradientColor=#ffffff;dashed=1;strokeWidth=2;strokeColor=#7EA6E0;" vertex="1" parent="1">
          <mxGeometry x="80" y="-480" width="654" height="460" as="geometry" />
        </mxCell>
        <mxCell id="dyUw3utnPXXKPK0ZKmom-1" value="" style="rounded=1;whiteSpace=wrap;html=1;fillColor=none;dashed=1;strokeColor=#B5739D;strokeWidth=2;" vertex="1" parent="1">
          <mxGeometry x="16" y="100" width="474" height="65" as="geometry" />
        </mxCell>
        <mxCell id="dyUw3utnPXXKPK0ZKmom-2" value="" style="rounded=1;whiteSpace=wrap;html=1;fillColor=none;dashed=1;strokeColor=#B5739D;strokeWidth=2;" vertex="1" parent="1">
          <mxGeometry x="18" y="180" width="346" height="50" as="geometry" />
        </mxCell>
        <mxCell id="dyUw3utnPXXKPK0ZKmom-6" style="edgeStyle=orthogonalEdgeStyle;rounded=0;orthogonalLoop=1;jettySize=auto;html=1;strokeWidth=2;fillColor=#d5e8d4;strokeColor=#82b366;" edge="1" parent="1" source="dyUw3utnPXXKPK0ZKmom-7" target="dyUw3utnPXXKPK0ZKmom-15">
          <mxGeometry relative="1" as="geometry" />
        </mxCell>
        <mxCell id="dyUw3utnPXXKPK0ZKmom-7" value="&lt;font color=&quot;#000000&quot;&gt;RealSense t265&lt;/font&gt;" style="rounded=1;whiteSpace=wrap;html=1;fontSize=16;fillColor=#ffe6cc;strokeColor=#d79b00;fontStyle=1" vertex="1" parent="1">
          <mxGeometry x="22" y="120" width="142" height="30" as="geometry" />
        </mxCell>
        <mxCell id="dyUw3utnPXXKPK0ZKmom-8" value="" style="edgeStyle=orthogonalEdgeStyle;rounded=0;orthogonalLoop=1;jettySize=auto;html=1;strokeWidth=2;fillColor=#d5e8d4;strokeColor=#82b366;" edge="1" parent="1" source="dyUw3utnPXXKPK0ZKmom-9" target="dyUw3utnPXXKPK0ZKmom-19">
          <mxGeometry relative="1" as="geometry" />
        </mxCell>
        <mxCell id="dyUw3utnPXXKPK0ZKmom-9" value="&lt;font color=&quot;#000000&quot;&gt;ZED2双目相机&lt;/font&gt;" style="rounded=1;whiteSpace=wrap;html=1;fontSize=16;fillColor=#ffe6cc;strokeColor=#d79b00;fontStyle=1" vertex="1" parent="1">
          <mxGeometry x="22" y="190" width="142" height="30" as="geometry" />
        </mxCell>
        <mxCell id="dyUw3utnPXXKPK0ZKmom-14" value="&lt;b&gt;实时更新&lt;br&gt;&lt;br&gt;坐标映射&lt;br&gt;&lt;/b&gt;" style="text;html=1;resizable=0;autosize=1;align=center;verticalAlign=middle;points=[];fillColor=none;strokeColor=none;rounded=0;fontSize=16;" vertex="1" parent="1">
          <mxGeometry x="246" y="237" width="80" height="60" as="geometry" />
        </mxCell>
        <mxCell id="dyUw3utnPXXKPK0ZKmom-15" value="/local_position" style="rounded=1;whiteSpace=wrap;html=1;fillColor=#1ba1e2;strokeColor=#006EAF;horizontal=1;fontSize=16;fontColor=#ffffff;fontStyle=1" vertex="1" parent="1">
          <mxGeometry x="344" y="120" width="140" height="30" as="geometry" />
        </mxCell>
        <mxCell id="dyUw3utnPXXKPK0ZKmom-18" value="" style="edgeStyle=orthogonalEdgeStyle;rounded=0;orthogonalLoop=1;jettySize=auto;html=1;strokeWidth=2;fillColor=#d5e8d4;strokeColor=#82b366;" edge="1" parent="1" source="dyUw3utnPXXKPK0ZKmom-19" target="dyUw3utnPXXKPK0ZKmom-22">
          <mxGeometry relative="1" as="geometry" />
        </mxCell>
        <mxCell id="dyUw3utnPXXKPK0ZKmom-19" value="yolov4-tiny" style="rounded=1;whiteSpace=wrap;html=1;fillColor=#1ba1e2;strokeColor=#006EAF;horizontal=1;fontSize=16;fontColor=#ffffff;fontStyle=1" vertex="1" parent="1">
          <mxGeometry x="225" y="190" width="124" height="30" as="geometry" />
        </mxCell>
        <mxCell id="dyUw3utnPXXKPK0ZKmom-22" value="目标点位置" style="rounded=1;whiteSpace=wrap;html=1;fillColor=#1ba1e2;strokeColor=#006EAF;horizontal=1;fontSize=16;fontColor=#ffffff;fontStyle=1" vertex="1" parent="1">
          <mxGeometry x="220" y="312" width="134" height="30" as="geometry" />
        </mxCell>
        <mxCell id="dyUw3utnPXXKPK0ZKmom-34" value="&lt;b style=&quot;font-size: 16px&quot;&gt;无人车全局位姿&lt;/b&gt;" style="text;html=1;resizable=0;autosize=1;align=center;verticalAlign=middle;points=[];fillColor=none;strokeColor=none;rounded=0;fontSize=16;" vertex="1" parent="1">
          <mxGeometry x="166.20999999999998" y="110" width="130" height="20" as="geometry" />
        </mxCell>
        <mxCell id="dyUw3utnPXXKPK0ZKmom-60" value="" style="edgeStyle=orthogonalEdgeStyle;rounded=0;orthogonalLoop=1;jettySize=auto;html=1;strokeWidth=2;fillColor=#e1d5e7;strokeColor=#9673a6;" edge="1" parent="1" source="dyUw3utnPXXKPK0ZKmom-58" target="dyUw3utnPXXKPK0ZKmom-59">
          <mxGeometry relative="1" as="geometry" />
        </mxCell>
        <mxCell id="dyUw3utnPXXKPK0ZKmom-58" value="下位机（stm32）" style="rounded=1;whiteSpace=wrap;html=1;fillColor=#f8cecc;strokeColor=#b85450;horizontal=1;fontSize=16;fontStyle=1" vertex="1" parent="1">
          <mxGeometry x="40" y="310" width="100" height="42" as="geometry" />
        </mxCell>
        <mxCell id="dyUw3utnPXXKPK0ZKmom-59" value="差速轮轨迹跟踪" style="rounded=1;whiteSpace=wrap;html=1;fillColor=#f8cecc;strokeColor=#b85450;horizontal=1;fontSize=16;fontStyle=1" vertex="1" parent="1">
          <mxGeometry x="30" y="420" width="120" height="40" as="geometry" />
        </mxCell>
        <mxCell id="dyUw3utnPXXKPK0ZKmom-61" value="&lt;b style=&quot;font-size: 16px&quot;&gt;PID+前馈&lt;/b&gt;" style="text;html=1;resizable=0;autosize=1;align=center;verticalAlign=middle;points=[];fillColor=none;strokeColor=none;rounded=0;fontSize=16;" vertex="1" parent="1">
          <mxGeometry x="100" y="381" width="80" height="20" as="geometry" />
        </mxCell>
        <mxCell id="dyUw3utnPXXKPK0ZKmom-63" value="" style="endArrow=classic;startArrow=classic;html=1;rounded=0;strokeWidth=2;entryX=0.579;entryY=1.02;entryDx=0;entryDy=0;entryPerimeter=0;fillColor=#f8cecc;strokeColor=#b85450;exitX=1;exitY=0.5;exitDx=0;exitDy=0;" edge="1" parent="1">
          <mxGeometry width="50" height="50" relative="1" as="geometry">
            <mxPoint x="354" y="328" as="sourcePoint" />
            <mxPoint x="412.4" y="151.00000000000003" as="targetPoint" />
            <Array as="points">
              <mxPoint x="412" y="328" />
            </Array>
          </mxGeometry>
        </mxCell>
        <mxCell id="dyUw3utnPXXKPK0ZKmom-65" value="&lt;b style=&quot;font-size: 16px&quot;&gt;贝塞尔曲线&lt;br&gt;轨迹规划&lt;br&gt;&lt;/b&gt;" style="text;html=1;resizable=0;autosize=1;align=center;verticalAlign=middle;points=[];fillColor=none;strokeColor=none;rounded=0;fontSize=16;" vertex="1" parent="1">
          <mxGeometry x="404" y="220" width="100" height="40" as="geometry" />
        </mxCell>
        <mxCell id="dyUw3utnPXXKPK0ZKmom-68" value="" style="edgeStyle=orthogonalEdgeStyle;rounded=0;orthogonalLoop=1;jettySize=auto;html=1;strokeWidth=2;fillColor=#e1d5e7;strokeColor=#9673a6;" edge="1" parent="1" source="dyUw3utnPXXKPK0ZKmom-67">
          <mxGeometry relative="1" as="geometry">
            <mxPoint x="90" y="310" as="targetPoint" />
          </mxGeometry>
        </mxCell>
        <mxCell id="dyUw3utnPXXKPK0ZKmom-67" value="电脑端" style="rounded=1;whiteSpace=wrap;html=1;fillColor=#f8cecc;strokeColor=#b85450;horizontal=1;fontSize=16;fontStyle=1" vertex="1" parent="1">
          <mxGeometry x="50" y="250" width="80" height="23" as="geometry" />
        </mxCell>
        <mxCell id="dyUw3utnPXXKPK0ZKmom-69" value="&lt;b style=&quot;font-size: 16px&quot;&gt;USB通信&lt;/b&gt;" style="text;html=1;resizable=0;autosize=1;align=center;verticalAlign=middle;points=[];fillColor=none;strokeColor=none;rounded=0;fontSize=16;" vertex="1" parent="1">
          <mxGeometry x="100" y="280" width="80" height="20" as="geometry" />
        </mxCell>
        <mxCell id="dyUw3utnPXXKPK0ZKmom-70" value="" style="endArrow=none;html=1;rounded=0;strokeWidth=2;exitX=1;exitY=0.5;exitDx=0;exitDy=0;entryX=0.092;entryY=1.06;entryDx=0;entryDy=0;entryPerimeter=0;fillColor=#f8cecc;strokeColor=#b85450;" edge="1" parent="1" source="dyUw3utnPXXKPK0ZKmom-67" target="dyUw3utnPXXKPK0ZKmom-65">
          <mxGeometry width="50" height="50" relative="1" as="geometry">
            <mxPoint x="380" y="360" as="sourcePoint" />
            <mxPoint x="410" y="270" as="targetPoint" />
          </mxGeometry>
        </mxCell>
      </root>
    </mxGraphModel>
  </diagram>
</mxfile>
